<?xml version="1.0" encoding="UTF-8" standalone="no"?>
<svg
   xmlns:dc="http://purl.org/dc/elements/1.1/"
   xmlns:cc="http://creativecommons.org/ns#"
   xmlns:rdf="http://www.w3.org/1999/02/22-rdf-syntax-ns#"
   xmlns:svg="http://www.w3.org/2000/svg"
   xmlns="http://www.w3.org/2000/svg"
   viewBox="0 0 1500 1500"
   height="1500"
   width="1500"
   version="1.1"
   id="svg3390">
  <metadata
     id="metadata3396">
    <rdf:RDF>
      <cc:Work
         rdf:about="">
        <dc:format>image/svg+xml</dc:format>
        <dc:type
           rdf:resource="http://purl.org/dc/dcmitype/StillImage" />
        <dc:title></dc:title>
      </cc:Work>
    </rdf:RDF>
  </metadata>
  <defs
     id="defs3394" />
  <path
     id="path3400"
     d="m 677.0246,1366.2415 c -9.7273,-5.1281 -13.125,-11.2477 -13.125,-23.6399 0,-26.4252 17.8595,-56.3956 54.8693,-92.0775 34.38,-33.1464 72.6559,-57.0186 144.9196,-90.3847 l 24.1638,-11.157 12.2615,-17.5195 c 19.0658,-27.2417 45.1628,-67.3421 85.0221,-130.6444 40.6388,-64.54002 77.7776,-121.22138 97.4643,-148.75003 54.1086,-75.66229 112.8056,-141.7145 162.8982,-183.31035 l 11.5262,-9.57123 -5.625,0.89177 c -3.0937,0.49046 -23.0625,3.63366 -44.375,6.98486 -105.7686,16.6312 -170.9361,35.22704 -227.7261,64.9827 -65.3599,34.24585 -118.2667,85.3735 -146.0836,141.1711 -21.2723,42.66972 -26.3491,85.03697 -13.4643,112.36257 6.1823,13.1112 21.1747,24.67331 38.4674,29.66581 10.059,2.9041 31.3986,1.9616 43.8066,-1.9348 12.77,-4.0101 31.1428,-13.83491 41.848,-22.37811 9.8238,-7.8398 14.1585,-9.3068 5.6228,-1.903 -20.5084,17.78891 -46.5056,29.53381 -69.4316,31.36751 -30.328,2.4259 -58.6125,-13.8544 -71.718,-41.28031 -7.0194,-14.6894 -8.6595,-22.841 -8.712,-43.29852 -0.053,-20.50737 1.819,-31.43195 8.8811,-51.84144 30.2019,-87.28325 117.5367,-153.90376 249.7841,-190.53957 33.9237,-9.39768 74.5583,-17.33373 150.9456,-29.48004 l 52.2201,-8.30348 21.047,-14.18964 c 36.1789,-24.39141 63.5637,-34.8509 70.6743,-26.99376 2.0654,2.28215 2.0646,2.63234 -0.015,7.01413 -5.3338,11.24026 -28.6198,22.48439 -64.7116,31.24747 -13.9622,3.38999 -15.8668,4.68264 -40.0474,27.17873 -34.6456,32.23239 -79.7429,88.93794 -138.9029,174.6576 -27.4485,39.77147 -187.1846,278.84163 -186.66,279.36613 0.876,0.8761 34.3776,-15.2577 49.1755,-23.682 33.7995,-19.2419 62.0401,-42.0566 86.643,-69.9961 4.2073,-4.7779 7.996,-8.3407 8.4193,-7.9173 1.113,1.113 -17.5558,21.5796 -30.3559,33.2791 -26.6967,24.4014 -50.4318,40.1727 -89.8025,59.6712 l -28.8462,14.2861 -7.3347,10.309 c -22.9911,32.314 -66.1584,87.9402 -93.9647,121.0845 -42.2977,50.4178 -81.3539,83.5949 -111.1325,94.404 -9.7111,3.5249 -22.8316,3.9229 -28.6258,0.8684 z m 31.0742,-5.1572 c 14.9702,-7.0054 27.0152,-16.4099 48.3248,-37.7308 22.8766,-22.8889 38.9385,-41.9743 63.6738,-75.66 14.6079,-19.8937 63.8022,-92.0476 63.8022,-93.5795 0,-0.636 -24.3353,10.3819 -51.25,23.2036 -49.1498,23.4142 -87.072,49.4652 -118.2225,81.2143 -31.8433,32.455 -46.4299,57.456 -47.645,81.6616 -0.6695,13.3375 1.2909,18.2528 9.1227,22.8728 7.194,4.2437 20.6617,3.4146 32.194,-1.9821 z m 591.6149,-713.96464 c 13.8615,-3.85448 25.2603,-8.05155 34.8109,-12.81751 6.3573,-3.17244 15.625,-12.06584 15.625,-14.99394 0,-5.6828 -20.1644,0.29632 -38.4457,11.39986 -12.3925,7.5269 -31.8183,21.8396 -28.4293,20.94647 1.375,-0.36237 8.7726,-2.40307 16.4391,-4.53488 z m -578.3141,127.44881 0,-48.75 -48.75,0 -48.75,0 0,-20.625 0,-20.625 48.75,0 48.75,0 0,-48.75 0,-48.75 20.625,0 20.625,0 0,48.75 0,48.75 48.75,0 48.75,0 0,20.625 0,20.625 -48.75,0 -48.75,0 0,48.75 0,48.75 -20.625,0 -20.625,0 0,-48.75 z M 328.39279,692.06411 c -3.3834,-2.16274 -20.5519,-7.10826 -21.1148,-6.08229 -0.1394,0.25391 -0.8761,1.58665 -1.6373,2.96165 -2.6094,4.71359 -5.2991,3.49167 -17.8318,-8.10109 -11.9716,-11.07367 -12.4126,-11.67582 -14.9442,-20.40466 -4.2149,-14.53302 -5.5537,-24.18075 -4.006,-28.87007 1.3979,-4.23574 6.1601,-9.41317 10.8963,-11.84644 3.3869,-1.74009 9.9821,-1.8315 11.0196,-0.15274 0.4249,0.6875 2.3937,1.25 4.375,1.25 1.9814,0 3.9053,0.4899 4.2753,1.08865 0.3701,0.59876 4.0266,0.31386 8.1256,-0.6331 7.0504,-1.6288 7.9798,-1.55346 17.2135,1.39539 10.6348,3.39632 15.84,3.78994 23.5106,1.77787 5.0862,-1.33414 15.2177,-2.56217 20.3125,-2.46207 1.5469,0.0304 2.8125,-0.50094 2.8125,-1.18074 0,-0.6798 2.1812,-1.236 4.847,-1.236 5.5934,0 6.8057,-1.1401 8.9718,-8.4375 0.8673,-2.92188 2.1911,-5.32111 2.9416,-5.33164 3.7583,-0.0528 4.6961,-2.07197 3.3258,-7.16097 -1.0198,-3.78712 -0.9518,-7.01359 0.2735,-12.99164 0.9757,-4.75999 1.2597,-9.96077 0.7074,-12.95325 -0.5077,-2.75 -0.9554,-12.98243 -0.995,-22.73873 -0.042,-10.39616 -0.5895,-18.05851 -1.3221,-18.51127 -0.6875,-0.4249 -1.25,-2.43448 -1.25,-4.46574 0,-2.03125 -0.5098,-4.66992 -1.1329,-5.86372 -3.7701,-7.22249 -3.9331,-12.32403 -0.7742,-24.21694 2.8771,-10.83199 2.9817,-12.18268 1.4052,-18.13639 -1.4274,-5.39084 -1.4347,-8.22539 -0.045,-17.5 1.6718,-11.15749 4.0085,-19.26257 6.8779,-23.85729 1.2633,-2.02278 1.184,-4.00676 -0.4186,-10.4776 -1.9442,-7.85006 -3.4,-38.03387 -1.953,-40.49493 0.4001,-0.68057 0.317,-4.33114 -0.1848,-8.11239 -0.7831,-5.90141 -0.2298,-9.26443 3.9066,-23.74802 5.4982,-19.25192 5.97,-25.10085 2.3188,-28.75198 -1.375,-1.375 -2.5,-3.55676 -2.5,-4.84835 0,-3.23 -6.76,-6.0719 -9.3433,-3.92794 -1.47,1.22001 -3.341,1.02143 -9.2833,-0.98533 -6.4002,-2.16137 -7.5415,-2.25473 -8.1508,-0.66677 -0.5925,1.54392 -2.8336,1.70419 -13.6754,0.97794 -12.1362,-0.81295 -13.2056,-0.6921 -16.6934,1.88653 -3.5165,2.59988 -3.9811,2.64872 -8.2456,0.86689 -4.5984,-1.92135 -5.4664,-3.57733 -6.1457,-11.72518 l -0.3375,-4.04723 -14.2101,6.86357 -14.2101,6.86356 -7.2863,-3.26989 c -8.9984,-4.03824 -10.0907,-5.28496 -13.7653,-15.71186 -2.7467,-7.79376 -2.841,-8.94029 -1.418,-17.23844 1.5595,-9.09442 5.9954,-19.51291 9.5718,-22.48106 1.6758,-1.39075 3.3361,-1.3004 10.1882,0.55436 5.9457,1.60944 10.3306,1.99615 16.0222,1.41304 5.3019,-0.5432 9.4162,-0.25121 12.7219,0.90284 7.5011,2.61875 19.8059,4.63357 34.2607,5.60995 12.2509,0.82751 13.4997,0.69212 18.75,-2.03293 4.1799,-2.16942 7.2308,-2.82307 11.875,-2.54424 3.4375,0.20639 6.8374,7.8e-4 7.5554,-0.45692 0.7179,-0.4577 3.7257,0.25147 6.684,1.57595 2.9583,1.32446 6.6113,2.09879 8.1177,1.7207 2.1655,-0.54353 4.3674,1.00841 10.5177,7.41335 8.4176,8.76606 13.5299,18.14484 14.738,27.03746 0.6389,4.70285 1.6144,6.2818 5.9507,9.63141 2.8526,2.20352 6.7525,5.47839 8.6665,7.27748 2.6865,2.5252 4.2744,3.09662 6.9635,2.50597 5.5744,-1.22433 12.4606,-7.70206 13.9101,-13.08505 0.9546,-3.54546 3.1526,-6.30446 8.4679,-10.62946 9.2273,-7.50817 17.5116,-18.32309 19.3764,-25.29515 1.3564,-5.07134 1.7207,-5.42955 4.8281,-4.74704 1.8486,0.40602 3.729,0.14278 4.1788,-0.58497 1.478,-2.3915 5.4748,-1.46844 5.8958,1.36165 0.2197,1.47666 1.5244,3.30479 2.8994,4.0625 1.375,0.75771 2.879,1.90399 3.3423,2.54729 1.1134,1.54623 4.739,-1.51694 6.132,-5.18075 1.3411,-3.52739 3.7936,-3.65909 6.7757,-0.36388 2.893,3.1967 7.84591,3.19806 11.24671,0.002 l 2.6579,-2.49691 10.8421,4.37191 c 5.9632,2.40454 11.1954,4.3719 11.6272,4.3719 0.4317,0 0.4124,-2.48497 -0.043,-5.52216 -0.7763,-5.17685 -0.5394,-5.8109 3.7892,-10.13946 10.4196,-10.41965 23.9105,-10.96574 32.9104,-1.33214 1.6667,1.78406 4.2488,3.24376 5.7379,3.24376 4.9958,0 18.0188,7.54368 22.7085,13.15408 2.4945,2.98417 7.2608,7.19176 10.5918,9.35018 3.331,2.15844 6.0564,4.40882 6.0564,5.00085 0,0.59203 1.2069,1.45948 2.682,1.92764 1.4751,0.46818 4.9907,2.95504 7.8125,5.52635 2.8218,2.57131 6.6104,5.03258 8.4192,5.46946 3.9638,0.95744 7.3363,7.33024 7.3363,13.863 0,6.82537 3.0705,12.8918 7.9959,15.79788 3.7826,2.23181 4.5965,3.60422 6.0693,10.23515 1.0964,4.93586 1.3786,10.03296 0.7941,14.34024 -0.4988,3.67538 -0.468,8.21267 0.068,10.08287 0.5364,1.8702 0.5293,4.60576 -0.016,6.07903 -0.5994,1.6203 -0.255,5.07291 0.8718,8.73846 2.3111,7.51875 1.4429,13.92709 -2.9903,22.07239 l -3.3499,6.15475 -6.81,-0.70285 c -5.9725,-0.61643 -7.2568,-0.32695 -10.4427,2.35383 -1.998,1.68118 -4.4096,3.05669 -5.3591,3.05669 -0.9495,0 -3.2564,-2.67187 -5.1265,-5.9375 -1.8701,-3.26562 -3.4944,-6.08495 -3.6095,-6.26516 -0.1152,-0.18021 -2.737,0.79042 -5.8263,2.15696 -3.0893,1.36655 -9.7856,3.1203 -14.8807,3.89724 -5.0951,0.77692 -10.271,1.93472 -11.5021,2.57287 -2.5805,1.33764 -3.3252,0.99348 -10.742,-4.96445 -8.2091,-6.59438 -12.5542,-14.11107 -11.726,-20.2852 0.4964,-3.70083 0.099,-5.6101 -1.5478,-7.42936 -2.4577,-2.71575 -2.4829,-2.65994 5.1429,-11.40552 2.1749,-2.49433 6.9281,-8.96308 10.5627,-14.375 3.6345,-5.41194 7.1432,-10.05082 7.7971,-10.30863 6.9238,-2.7298 8.1161,-14.15041 2.1828,-20.908 -2.0315,-2.31374 -4.3947,-6.60675 -5.2516,-9.54002 -0.8569,-2.93328 -2.0411,-5.66858 -2.6316,-6.07845 -0.5904,-0.40989 -6.7743,-1.49977 -13.7419,-2.42197 -12.1386,-1.6066 -13.0008,-1.92831 -20.616,-7.69226 -4.3713,-3.30745 -8.4805,-6.01445 -9.1316,-6.01445 -0.651,0 -1.1838,-0.84375 -1.1838,-1.875 0,-2.99568 -6.0022,-2.23635 -9.4318,1.19319 -1.6875,1.6875 -3.0682,4.17512 -3.0682,5.52805 0,2.65241 -3.9763,4.34499 -13.2938,5.65862 -4.4458,0.6268 -5.26,0.38019 -5.8205,-1.76306 -1.1274,-4.31131 -4.0988,-2.7256 -7.16681,3.82464 -3.7443,7.9942 -12.0313,15.75369 -18.0258,16.87826 -3.3133,0.62158 -5.051,1.85503 -6.4646,4.58866 -1.8939,3.66234 -1.8484,3.81124 2.2316,7.3018 2.2907,1.95979 4.8411,3.5861 5.6676,3.61404 0.8264,0.028 5.2311,-2.55564 9.7882,-5.74129 7.5375,-5.26907 8.4633,-5.61446 10.25281,-3.82497 1.7895,1.78948 1.7654,2.28429 -0.2664,5.47958 -3.89181,6.12028 -9.49231,9.76248 -15.01141,9.76248 -4.67,0 -5.2062,0.37722 -7.7756,5.47039 -1.5179,3.00871 -3.9085,6.27497 -5.3125,7.25837 -1.404,0.9834 -2.5528,2.29304 -2.5528,2.9103 0,0.61726 -1.4578,2.58016 -3.2396,4.36199 -2.6809,2.6809 -3.5657,2.96915 -5.1297,1.67119 -1.8636,-1.54666 -1.7838,-4.57453 0.3652,-13.85974 0.6118,-2.64338 0.336,-3.4375 -1.1939,-3.4375 -1.539,0 -1.8215,-0.83988 -1.2476,-3.70931 0.6313,-3.15668 0.2434,-3.93644 -2.604,-5.23379 -3.1173,-1.42035 -3.6398,-1.19414 -7.6481,3.31137 -2.3662,2.65973 -4.3023,5.57743 -4.3023,6.48379 0,0.90636 -0.8323,1.64794 -1.8497,1.64794 -1.0173,0 -4.0347,0.87426 -6.7052,1.9428 -5.4088,2.16417 -8.1188,6.55849 -6.9404,11.25382 0.9664,3.85034 -1.6116,4.08064 -6.1058,0.54548 l -3.1883,-2.5079 -3.9167,3.29572 c -4.1834,3.52012 -9.502,12.87367 -10.2277,17.98723 -0.3763,2.65062 0.019,3.0699 2.6838,2.8499 7.5276,-0.62136 9.4332,-1.0826 10.3465,-2.50429 0.5343,-0.83172 3.0656,-1.86346 5.625,-2.29275 9.8341,-1.64946 12.2263,-2.93165 13.8507,-7.42394 1.8448,-5.10168 7.776,-9.7336 11.7425,-9.17022 2.3682,0.33636 2.7886,1.12929 2.6719,5.04047 -0.1835,6.15004 -3.3241,10.67574 -8.3036,11.96609 -2.5735,0.66684 -4.1905,1.93474 -4.4274,3.47155 -1.2601,8.17188 -7.435,15.54604 -13.0178,15.54604 -0.9,0 -2.3279,1.1073 -3.1731,2.46067 -0.8452,1.35338 -3.2305,3.33658 -5.3007,4.4071 l -3.764,1.94643 0,-5.0321 c 0,-5.46153 -0.2172,-5.67278 -3.8399,-3.73396 -1.9101,1.02227 -3.652,0.57938 -8.1968,-2.084 -4.2587,-2.49578 -6.2872,-3.0566 -7.7403,-2.14 -2.6228,1.65437 -3.9779,7.11343 -2.8209,11.36336 0.5148,1.89062 0.423,4.28125 -0.2039,5.3125 -0.7033,1.15681 -0.6362,3.19167 0.1751,5.3125 1.0769,2.81538 2.0817,3.4375 5.5522,3.4375 2.3447,0 5.6571,-1.1167 7.4156,-2.5 3.9186,-3.08231 4.9677,-3.1119 7.5902,-0.21408 2.9756,3.28797 2.5487,8.72387 -1.0563,13.45019 -3.8588,5.05916 -3.9298,8.83793 -0.4589,24.42644 2.7002,12.12725 2.6043,16.03229 -0.498,20.27366 -1.554,2.12473 -2.214,1.51375 -8.1792,-7.57246 -3.5689,-5.43601 -6.4889,-10.31046 -6.4889,-10.83211 0,-0.52164 1.4616,-2.86458 3.2478,-5.20653 2.9757,-3.90128 3.0804,-4.42548 1.25,-6.25588 -1.0987,-1.09879 -1.9978,-2.80137 -1.9978,-3.78352 0,-3.76882 -4.945,-1.79382 -7.3597,2.93941 -4.85,9.50679 -6.633,18.20366 -5.034,24.55394 1.1936,4.74045 1.8711,5.65854 3.7383,5.06593 3.4034,-1.0802 9.1125,2.40744 13.7994,8.42989 2.29,2.94256 4.8819,5.79996 5.7599,6.34975 2.9254,1.83203 5.2756,8.04402 7.1844,18.98997 1.0396,5.96159 2.2234,11.37833 2.6306,12.03721 0.4072,0.65889 0.032,5.15963 -0.833,10.00164 -1.3043,7.29875 -1.2857,8.98142 0.109,9.84344 1.3917,0.86009 1.3512,1.54531 -0.2346,3.9654 -1.2942,1.97524 -1.5822,3.83039 -0.8867,5.7107 0.6515,1.76101 0.3617,4.68013 -0.7882,7.93912 -1.0001,2.83475 -1.5226,5.63271 -1.1611,6.21772 0.3616,0.58498 0,4.62028 -0.799,8.96733 -1.3536,7.34647 -1.2547,8.29763 1.4027,13.49078 2.4898,4.86561 2.8259,7.21503 2.6028,18.19449 -0.2723,13.4016 0.9288,16.53913 5.7467,15.0115 1.6689,-0.52917 2.8911,0.49011 4.7475,3.95922 3.9152,7.31644 18.125,13.45169 18.125,7.82566 0,-3.72311 5.1626,-6.63033 9.1094,-5.12977 2.4042,0.91406 3.5664,0.77031 4.6868,-0.57971 0.8675,-1.0453 2.6277,-1.50957 4.214,-1.11144 3.0353,0.7618 6.1363,-2.00579 7.5928,-6.77648 0.771,-2.52556 1.4545,-2.8324 4.8131,-2.1607 2.1529,0.43059 7.2591,2.77536 11.3472,5.2106 5.1505,3.06817 8.3239,4.20409 10.3348,3.69939 1.59601,-0.40058 2.90191,-0.2454 2.90191,0.34484 0,0.59025 1.3173,1.67339 2.9274,2.40699 1.61,0.73358 7.2885,6.5895 12.6189,13.01313 5.3303,6.42364 12.3605,14.50124 15.6225,17.95023 9.3964,9.93474 9.7777,11.19697 5.1296,16.98085 -2.1568,2.68395 -5.3461,7.62561 -7.0872,10.98147 l -3.1656,6.10158 -5.3262,-2.97685 c -2.9293,-1.63728 -8.0865,-3.33523 -11.4603,-3.77324 -3.3738,-0.43801 -7.0011,-1.54529 -8.0607,-2.46062 -1.6198,-1.39925 -2.5404,-1.29088 -5.78231,0.68062 -3.403,2.06948 -4.073,2.12775 -5.7045,0.49621 -1.6315,-1.63153 -2.6919,-1.62846 -9.0283,0.0263 -3.9488,1.03118 -7.9781,1.56849 -8.9539,1.19402 -0.9759,-0.37447 -3.3879,-0.0125 -5.3601,0.80441 -3.129,1.29611 -4.4247,1.06014 -10.1731,-1.85281 -5.6801,-2.8783 -6.7339,-3.07618 -7.6514,-1.43667 -1.7087,3.0533 -17.9973,7.26329 -27.5251,7.11423 -1.8455,-0.0289 -3.6388,0.40612 -3.9852,0.96666 -0.3465,0.56053 -5.9357,0.98853 -12.4204,0.95109 -10.6264,-0.0614 -11.8991,0.17877 -12.8898,2.43194 -0.8616,1.95943 -2.5161,2.58162 -7.6517,2.87747 -5.8692,0.33811 -7.1587,-0.0855 -12.3673,-4.0625 -6.0897,-4.64984 -7.906,-5.23929 -9.9245,-3.22079 -0.7922,0.79224 -2.8502,0.71862 -5.8768,-0.21027 -3.6549,-1.12173 -5.3214,-1.07419 -7.7411,0.22081 -2.273,1.21646 -6.1317,1.4339 -14.6791,0.82719 l -11.5956,-0.82308 -3.8747,4.61525 c -3.7054,4.41359 -4.0412,4.5463 -7.6846,3.03718 -2.8639,-1.1863 -5.0069,-1.24568 -8.6319,-0.23915 -6.1145,1.69783 -6.5717,1.64979 -10.9539,-1.15148 z m 91.1318,-179.47278 c 0.6875,-2.00632 2.5157,-4.67306 4.0625,-5.92608 3.3697,-2.72954 3.5674,-6.0582 0.6529,-10.99207 -1.7777,-3.00928 -1.8857,-4.09476 -0.6107,-6.1363 1.2509,-2.00308 1.1977,-3.32086 -0.2766,-6.84935 -1.004,-2.40299 -2.6326,-4.36906 -3.6191,-4.36906 -1.8665,0 -7.9248,13.17764 -7.321,15.92424 0.1873,0.85209 -0.2999,3.92782 -1.0828,6.83497 -1.3364,4.96302 -1.2301,5.4519 1.7406,8.00714 2.2853,1.96576 2.9606,3.49845 2.432,5.51988 -1.1138,4.25896 2.4913,2.45443 4.0222,-2.01337 z M 571.3996,277.14224 c 0,-0.64692 -0.5625,-1.52387 -1.25,-1.94877 -0.6875,-0.4249 -1.25,0.10437 -1.25,1.17622 0,1.07183 0.5625,1.94878 1.25,1.94878 0.6875,0 1.25,-0.5293 1.25,-1.17623 z m -13.7219,48.08502 c -2.0492,-2.46911 -1.1065,-6.16223 1.7115,-6.70493 4.337,-0.83522 6.0986,5.10823 2.1417,7.22589 -1.7472,0.93507 -2.7583,0.79837 -3.8532,-0.52096 z"
     style="fill:#020202" />
</svg>
